<svg xmlns:v="https://vecta.io/nano" xmlns="http://www.w3.org/2000/svg" xmlns:xlink="http://www.w3.org/1999/xlink" version="1.1" id="katman_1" x="0px" y="0px" viewBox="0 0 1418.67 994.84" style="enable-background:new 0 0 1418.67 994.84;" xml:space="preserve">
<path d="M181.43,427.93c6.26-7.57,10.7-17.88,10.7-28.32c0.01-1.36-0.12-2.71-0.39-4.04c-10.18,0.39-22.45,6.78-29.75,15.4  c-5.74,6.52-11.09,16.96-11.09,27.41c0.01,1.23,0.14,2.45,0.39,3.65c0.9,0.17,1.82,0.26,2.74,0.26  C163.16,442.29,174.64,436.16,181.43,427.93L181.43,427.93z M188.6,444.51c-15.27,0-27.67,9.26-35.63,9.26  c-8.48,0-19.57-8.74-32.89-8.74c-25.18,0-50.76,20.88-50.76,60.16c0,24.53,9.4,50.37,21.14,67.08  c10.05,14.09,18.79,25.71,31.45,25.71c12.53,0,18.01-8.35,33.54-8.35c15.79,0,19.31,8.09,33.15,8.09c13.7,0,22.84-12.53,31.45-24.93  c9.66-14.22,13.7-28.06,13.83-28.71c-0.78-0.26-27.01-10.96-27.01-40.97c0-25.97,20.62-37.58,21.79-38.49  C215.09,445.03,194.34,444.51,188.6,444.51L188.6,444.51z M318.66,596.54h32.23l67.08-188.3h-31.45l-51.42,155.81h-0.65  l-51.41-155.81h-31.45L318.66,596.54z" fill="#ffffff"/>
<g>
	<path id="B" d="M447.33,438.11c9.26,0,16.44-7.31,16.44-16.18c0-9-7.18-16.31-16.44-16.31c-9.14,0-16.44,7.31-16.44,16.31   C430.89,430.81,438.2,438.11,447.33,438.11z M433.24,596.53h28.19V459.25h-28.19V596.53z" fill="#ffffff"/>
</g>
<path d="M536.77,599.28c32.36,0,55.85-17.23,55.85-42.28v-0.13c0-19.71-10.7-30.8-38.76-37.32l-22.31-5.09  c-14.75-3.52-20.36-9.26-20.36-17.75v-0.13c0-10.96,9.52-18.14,24.67-18.14c15.92,0,25.32,8.35,27.01,20.36l0.13,0.91h26.49  l-0.13-1.56c-1.44-23.36-21.01-41.5-53.5-41.5c-31.58,0-52.98,16.83-52.98,41.37v0.13c0,19.97,12.92,32.49,39.02,38.49l22.45,5.09  c14.75,3.52,19.71,8.61,19.71,17.49v0.13c0,11.09-10.18,18.14-27.14,18.14c-17.36,0-26.75-7.44-29.36-20.1l-0.26-1.3h-27.93  l0.13,1.18C482.35,582.31,502.45,599.28,536.77,599.28z" fill="#ffffff"/>
<g>
	<path id="B_00000101072013231717643090000017304171427589061821_" d="M627.77,438.11c9.26,0,16.44-7.31,16.44-16.18   c0-9-7.18-16.31-16.44-16.31c-9.14,0-16.44,7.31-16.44,16.31C611.32,430.81,618.63,438.11,627.77,438.11z M613.67,596.53h28.19   V459.25h-28.19V596.53z" fill="#ffffff"/>
</g>
<path d="M726.76,599.28c39.28,0,65.12-27.14,65.12-71.38v-0.26c0-43.97-26.1-70.99-65.25-70.99c-39.02,0-64.99,27.14-64.99,70.99  v0.26C661.65,572,687.36,599.28,726.76,599.28L726.76,599.28z M726.89,575.66c-22.05,0-36.41-17.36-36.41-47.76v-0.26  c0-30.01,14.48-47.37,36.15-47.37c22.05,0,36.41,17.36,36.41,47.37v0.26C763.04,558.17,748.95,575.66,726.89,575.66z M808.58,596.54  h28.19v-79.99c0-21.4,12.79-35.75,32.62-35.75c19.57,0,29.23,11.61,29.23,32.23v83.52h28.32v-88.87c0-31.58-17.36-51.02-47.5-51.02  c-20.75,0-34.84,9.4-42.02,23.36h-0.65v-20.75h-28.19L808.58,596.54z M994.81,596.54h29.23V532.2h40.85  c36.93,0,62.51-25.19,62.51-61.98v-0.26c0-36.93-25.58-61.72-62.51-61.72h-70.08V596.54z M1057.58,432.9  c25.45,0,40.06,13.7,40.06,37.19v0.26c0,23.62-14.62,37.32-40.06,37.32h-33.54v-74.78L1057.58,432.9z M1144.44,596.54h28.19v-81.82  c0-20.49,11.22-32.36,29.36-32.36c5.48,0,10.44,0.65,12.66,1.56v-26.23c-2.22-0.39-5.74-1.04-9.79-1.04  c-15.66,0-27.14,10.05-31.58,26.1h-0.65v-23.49h-28.19L1144.44,596.54z M1284.22,599.28c39.28,0,65.12-27.14,65.12-71.38v-0.26  c0-43.97-26.1-70.99-65.25-70.99c-39.02,0-64.99,27.14-64.99,70.99v0.26C1219.1,572,1244.81,599.28,1284.22,599.28L1284.22,599.28z   M1284.34,575.66c-22.05,0-36.41-17.36-36.41-47.76v-0.26c0-30.01,14.48-47.37,36.15-47.37c22.05,0,36.41,17.36,36.41,47.37v0.26  C1320.49,558.17,1306.4,575.66,1284.34,575.66z" fill="#ffffff"/>
</svg>